<?xml version="1.0" encoding="UTF-8"?>
<!DOCTYPE svg PUBLIC "-//W3C//DTD SVG 1.1//EN" "http://www.w3.org/Graphics/SVG/1.1/DTD/svg11.dtd">
<!-- Creator: CorelDRAW 2021 (64-Bit) -->
<svg xmlns="http://www.w3.org/2000/svg" xml:space="preserve" width="45mm" height="42mm" version="1.1" style="shape-rendering:geometricPrecision; text-rendering:geometricPrecision; image-rendering:optimizeQuality; fill-rule:evenodd; clip-rule:evenodd"
viewBox="0 0 45 42"
 xmlns:xlink="http://www.w3.org/1999/xlink"
 xmlns:xodm="http://www.corel.com/coreldraw/odm/2003">
 <defs>
  <style type="text/css">
   <![CDATA[
    .str0 {stroke:black;stroke-width:0.2;stroke-linecap:round;stroke-linejoin:round;stroke-miterlimit:22.9256}
    .str1 {stroke:#F6AA16;stroke-width:0.2;stroke-linecap:round;stroke-linejoin:round;stroke-miterlimit:22.9256}
    .str2 {stroke:white;stroke-width:0.2;stroke-linecap:round;stroke-linejoin:round;stroke-miterlimit:22.9256}
    .fil1 {fill:none}
    .fil0 {fill:black}
    .fil2 {fill:#F6AA16}
    .fil3 {fill:white}
   ]]>
  </style>
 </defs>
 <g id="Capa_x0020_1">
  <metadata id="CorelCorpID_0Corel-Layer"/>
  <polygon class="fil0" points="35.47,8.0784 35.4211,8.653 "/>
  <line class="fil1 str0" x1="9.6438" y1="6.3323" x2="7.1326" y2= "8.8436" />
  <line class="fil1 str0" x1="33.7763" y1="6.2362" x2="36.2875" y2= "8.7474" />
  <line class="fil1 str0" x1="33.7763" y1="35.2952" x2="36.2875" y2= "32.7839" />
  <line class="fil1 str0" x1="9.74" y1="35.2952" x2="7.2287" y2= "32.7839" />
  <path class="fil1 str0" d="M7.2287 32.784c9.3311,-8.0344 9.2991,-16.0146 -0.0961,-23.9404"/>
  <path class="fil1 str0" d="M33.7763 6.2362c-8.0342,9.3311 -16.2066,9.4913 -24.1325,0.0962"/>
  <path class="fil1 str0" d="M36.2875 8.7474c-9.331,8.0344 -9.3951,16.1107 -0.0001,24.0367"/>
  <path class="fil2 str1" d="M7.2287 32.7841l2.5113 2.5112c8.0343,-9.3312 16.1105,-9.3953 24.0363,0l2.5111 -2.5112c-9.3951,-7.9259 -9.3309,-16.0023 0.0002,-24.0367l-2.5113 -2.5112c-8.0343,9.3311 -16.2066,9.4914 -24.1325,0.096l-2.5113 2.5114c9.3953,7.9258 9.4273,15.906 0.0962,23.9405z"/>
  <path class="fil3 str2" d="M4.872 8.6043c-0.0001,-2.5033 2.0293,-4.5328 4.5326,-4.5328 2.003,-0.0001 3.7025,1.2993 4.3019,3.1009l2.3204 -2.3205c-1.3081,-2.3037 -3.7838,-3.8578 -6.6223,-3.8579 -4.203,0 -7.6102,3.4072 -7.6102,7.6103 0,2.8385 1.5543,5.3141 3.8578,6.6225l2.3206 -2.3206c-1.8016,-0.5993 -3.1009,-2.2989 -3.1008,-4.3019z"/>
  <path class="fil3 str2" d="M34.1841 1.0666c-2.8385,0.0001 -5.3141,1.5541 -6.6222,3.8579l2.3204 2.3204c0.5993,-1.8015 2.2989,-3.1008 4.3017,-3.1008 2.5035,0 4.5329,2.0294 4.5328,4.5328 0.0001,2.0031 -1.2992,3.7026 -3.1007,4.3019l2.3204 2.3206c2.3037,-1.3084 3.8579,-3.7839 3.8579,-6.6225 0,-4.203 -3.4072,-7.6103 -7.6103,-7.6103z"/>
  <path class="fil3 str2" d="M38.5482 33.0233c0,2.5034 -2.0294,4.5327 -4.5327,4.5328 -2.003,-0.0001 -3.7026,-1.2995 -4.3019,-3.101l-2.3204 2.3205c1.3081,2.3037 3.7837,3.858 6.6222,3.858 4.2031,0.0001 7.6103,-3.4073 7.6103,-7.6104 0,-2.8385 -1.5543,-5.3143 -3.8579,-6.6224l-2.3205 2.3205c1.8016,0.5993 3.1009,2.2987 3.1009,4.302z"/>
  <path class="fil3 str2" d="M9.6403 37.7539c-2.5033,0 -4.5326,-2.0295 -4.5327,-4.5328 0.0001,-2.003 1.2993,-3.7026 3.1009,-4.302l-2.3205 -2.3204c-2.3036,1.3082 -3.8579,3.7839 -3.8579,6.6223 -0.0001,4.2032 3.4071,7.6104 7.6103,7.6104 2.8385,0 5.3141,-1.5543 6.6223,-3.8579l-2.3205 -2.3205c-0.5993,1.8016 -2.2987,3.1009 -4.3019,3.1009z"/>
 </g>
</svg>
